<svg xmlns="http://www.w3.org/2000/svg" width="45px" height="54px" viewBox="0 0 243.88 59.3" style='fill:white'><path d="M83,30V1.17h2.88V30Z"/><path d="M105.64,30V16.35c0-2.54-1.17-4.09-3.67-4.09-2.09,0-4.21,1.3-6.38,3.42V30H92.83V10.22H95l.46,2.92c2.17-1.92,4.42-3.34,7.09-3.34,3.92,0,5.88,2.25,5.88,6V30Z"/><path d="M120,30.33a15.57,15.57,0,0,1-7.09-1.8l.46-2.67A13,13,0,0,0,120.24,28c2.75,0,4.46-1.17,4.46-3.17s-1.16-2.84-5.08-3.88c-4.38-1.13-6.26-2.54-6.26-5.8,0-3.09,2.63-5.34,6.71-5.34a14.84,14.84,0,0,1,6.14,1.34l-.46,2.63A12.42,12.42,0,0,0,120,12.22c-2.71,0-4,1.17-4,2.8s1.08,2.46,4.42,3.33c4.67,1.26,6.92,2.76,6.92,6.26S124.54,30.33,120,30.33Z"/><path d="M133.76,5.51a2,2,0,0,1-2-2,2,2,0,0,1,2-2,2,2,0,0,1,0,4ZM132.38,30V10.22h2.71V30Z"/><path d="M154.82,30l-.5-2.88a8,8,0,0,1-6.34,3.3c-4.34,0-8-3.09-8-9.72,0-7.22,4.22-10.72,9-10.72a12.45,12.45,0,0,1,5.14,1V.5l2.75-.5V30Zm-.66-16.48a10.32,10.32,0,0,0-5-1.16c-3.55,0-6.3,2.67-6.3,8.21,0,4.8,2.29,7.39,5.42,7.39,2.34,0,4.17-1.42,5.93-3.55Z"/><path d="M178.18,20.27H164.46c.08,4.84,2.33,7.72,6.3,7.72a10.65,10.65,0,0,0,7-2.92l.42,2.5a11.46,11.46,0,0,1-7.55,2.8c-5.17,0-8.88-3.51-8.88-10.31,0-6.34,3.67-10.26,8.51-10.26,5.38,0,8,4.42,8,9.89Zm-8-8.26c-3.09,0-5.09,2.3-5.64,6.09h10.77C175.05,14.56,173.39,12,170.22,12Z"/><path d="M195.25,30.49c-7.68,0-12.94-6.09-12.94-14.89s5.34-15,13-15,13,6.09,13,14.89S203,30.49,195.25,30.49Zm0-27.28c-6,0-10,5-10,12.31s4,12.39,10.05,12.39,10-5,10-12.31S201.33,3.21,195.29,3.21Z"/><path d="M226.91,30,226.45,27c-2.17,1.92-4.43,3.34-7.09,3.34-4,0-5.89-2.3-5.89-6.05V10.22h2.76v13.6c0,2.54,1.17,4,3.67,4,2.08,0,4.21-1.25,6.38-3.37V10.22H229V30Z"/><path d="M241.13,30.28c-3.09,0-5.13-1.21-5.13-4.83V12.56h-3V10.22h3V3.38l2.71-.46v7.3h4.55l.37,2.34h-4.92V25c0,2,.79,2.87,2.92,2.87a11.63,11.63,0,0,0,1.84-.2l.41,2.29A10.49,10.49,0,0,1,241.13,30.28Z"/><path d="M86.32,57.77H82.94V45.7h3.41c4.15,0,6.44,2.48,6.44,6S90.38,57.77,86.32,57.77Zm.12-10.67h-1.9v9.26h1.88c2.93,0,4.77-1.6,4.77-4.63S89.28,47.1,86.44,47.1Z"/><path d="M95.65,57.77V45.7h7.22v1.4H97.24v3.68h4.56l.24,1.41h-4.8v4.17H103v1.41Z"/><path d="M110.69,58h-1.43l-4.72-12.09,1.6-.34L110.05,56l3.84-10.25h1.62Z"/><path d="M117.79,57.77V45.7H125v1.4h-5.63v3.68H124l.23,1.41h-4.79v4.17h5.8v1.41Z"/><path d="M128,57.77V45.7h1.6V56.38h4.62l.22,1.39Z"/><path d="M141.25,58c-3.17,0-5.58-2.46-5.58-6.22s2.46-6.28,5.61-6.28,5.58,2.44,5.58,6.25S144.4,58,141.25,58Zm0-11.14c-2.46,0-4,2-4,4.89s1.58,4.89,4,4.89,4-2,4-4.89S143.71,46.84,141.28,46.84Z"/><path d="M153,53.09h-1.66v4.68h-1.6V45.7h3.38c2.63,0,4.44,1.29,4.44,3.67S155.68,53.09,153,53.09Zm.05-6h-1.71v4.67H153c1.81,0,3-.74,3-2.34S154.84,47.06,153,47.06Z"/><path d="M171.92,57.77l-.76-10.14-3.94,10.21h-1.5l-3.94-10.21L161,57.77h-1.48l1-12.07h2.17l3.88,10.18,3.89-10.18h2.12l1,12.07Z"/><path d="M176.78,57.77V45.7H184v1.4h-5.63v3.68h4.55l.24,1.41h-4.79v4.17h5.79v1.41Z"/><path d="M195,57.77,188.44,48v9.73H187V45.7h1.63L195,55.07V45.7h1.45V57.77Z"/><path d="M204.18,47.1V57.77h-1.6V47.1h-4V45.7H208l.22,1.4Z"/><path d="M212.35,46.53v4.18h-1V46.53h-1.49v-.84h3.9l.14.84Z"/><path d="M219.05,50.71,218.78,47l-1.27,3.68h-.84L215.4,47l-.26,3.67h-.86l.38-5h1.22l1.28,3.79,1.26-3.79h1.2l.39,5Z"/><path d="M56.15,1.87C56,2.18,54,6.52,53.08,8.92A.55.55,0,0,1,52,8.87c-.1-.36-.88-3.33-1.32-4.93A1.55,1.55,0,0,0,49.47,3c-2.12-.4-6.54-1.09-6.94-1.16s-.79-.91.38-.91H55.43C56,1,56.37,1.43,56.15,1.87Z"/><path d="M16.35,21.45c7.44-10.5,17.82-18,24.75-18A29.17,29.17,0,0,0,7.21,49.31C5.8,42.53,9.42,31.22,16.35,21.45Z"/><path d="M48.23,8c-6.67,1-15.19,11.44-19.46,23.1-3.76,10.31-4.37,22-1.4,28.1.6,0,1.2.07,1.81.07A29.17,29.17,0,0,0,48.23,8Z"/></svg>